<?xml version="1.0" encoding="utf-8"?>
<!-- Generator: Adobe Illustrator 25.0.0, SVG Export Plug-In . SVG Version: 6.00 Build 0)  -->
<svg version="1.1" id="Capa_1" xmlns="http://www.w3.org/2000/svg" xmlns:xlink="http://www.w3.org/1999/xlink" x="0px" y="0px"
	 viewBox="0 0 32 32" style="enable-background:new 0 0 32 32;" xml:space="preserve">
<style type="text/css">
	.st0{fill:#A0B128;}
</style>
<g>
	<path class="st0" d="M20.3,21.5l0.2-0.9l0.1,0.1c-0.9-1.7-0.4-3.7-0.3-3.9l0.2-0.9l0.1,0.1c-0.9-1.7-0.4-3.7-0.3-3.9l0.2-0.9
		l0.9,0.3c0.1,0.1,0.3,0.1,0.4,0.2V7.8H17v15.7h-1v-8.6h-1.2v-2.8h-4.3v11.4h-1v-5.7H8.4v-5.7H5.5c-0.5,1.4-0.8,2.9-0.8,4.6
		c0,2.9,0.9,5.7,2.5,7.9h13.1C19.9,23.1,20.2,21.6,20.3,21.5"/>
	<path class="st0" d="M31.3,10.1C29,4.2,23.3,0,16.6,0C7.8,0,0.7,7.1,0.7,16s7.1,16,15.9,16c2.5,0,4.9-0.6,7-1.6c0,0,0.1,0,0-0.1
		c0-0.1-0.1,0-0.1,0c-1.6,0.6-3.4,1-5.2,1c-8,0-14.4-6.6-14.4-14.6S10.4,2,18.4,2C24.1,2,28.9,5.3,31.3,10.1
		C31.2,10.1,31.2,10.1,31.3,10.1C31.3,10.1,31.3,10.1,31.3,10.1"/>
	<path class="st0" d="M25.3,26.9c4.6-0.6,3.4-5.2,3.4-5.2S24.6,23.4,25.3,26.9"/>
	<path class="st0" d="M25.3,22.1c4.6-0.6,3.4-5.2,3.4-5.2S24.6,18.6,25.3,22.1"/>
	<path class="st0" d="M21.8,22.1c-0.4-0.2-0.8-0.3-0.8-0.3s-0.3,1.5,0.2,2.9c0.4,1,1.3,2.1,3.3,2.3C25,24.3,23,22.7,21.8,22.1"/>
	<path class="st0" d="M21.8,17.4c-0.4-0.2-0.8-0.3-0.8-0.3s-0.6,2.4,0.8,3.9c0.5,0.6,1.3,1.1,2.6,1.3C25,19.6,23,18,21.8,17.4"/>
	<path class="st0" d="M24.5,17.4c0.5-2.6-1.5-4.2-2.6-4.8c-0.4-0.2-0.8-0.3-0.8-0.3s-0.6,2.4,0.8,3.9C22.3,16.8,23.2,17.2,24.5,17.4
		"/>
	<path class="st0" d="M25.3,17.4c4.6-0.6,3.4-5.2,3.4-5.2S24.6,13.9,25.3,17.4"/>
	<path class="st0" d="M24.9,7.8c0,0-3.3,2.6,0,6.1C28.1,10.4,24.9,7.8,24.9,7.8"/>
</g>
</svg>
